<svg width="50" height="50" viewBox="0 0 50 50" fill="none" xmlns="http://www.w3.org/2000/svg">
<path d="M25 29.5209C20.5625 29.5209 16.9375 25.9167 16.9375 21.4584C16.9375 17.0001 20.5625 13.4167 25 13.4167C29.4375 13.4167 33.0625 17.0209 33.0625 21.4792C33.0625 25.9376 29.4375 29.5209 25 29.5209ZM25 16.5417C22.2917 16.5417 20.0625 18.7501 20.0625 21.4792C20.0625 24.2084 22.2708 26.4167 25 26.4167C27.7292 26.4167 29.9375 24.2084 29.9375 21.4792C29.9375 18.7501 27.7083 16.5417 25 16.5417Z" fill="#292D32"/>
<path d="M25.0001 47.4168C21.9168 47.4168 18.8126 46.2501 16.396 43.9376C10.2501 38.0209 3.45846 28.5834 6.02096 17.3542C8.33346 7.16675 17.2293 2.60425 25.0001 2.60425C25.0001 2.60425 25.0001 2.60425 25.021 2.60425C32.7918 2.60425 41.6876 7.16675 44.0001 17.3751C46.5418 28.6042 39.7501 38.0209 33.6043 43.9376C31.1876 46.2501 28.0835 47.4168 25.0001 47.4168ZM25.0001 5.72925C18.9376 5.72925 11.146 8.95841 9.08346 18.0417C6.83346 27.8542 13.0001 36.3126 18.5835 41.6668C22.1876 45.1459 27.8335 45.1459 31.4376 41.6668C37.0001 36.3126 43.1668 27.8542 40.9585 18.0417C38.8751 8.95841 31.0626 5.72925 25.0001 5.72925Z" fill="#292D32"/>
</svg>
