<svg width="50" height="50" viewBox="0 0 50 50" fill="none" xmlns="http://www.w3.org/2000/svg">
<g clip-path="url(#clip0_2005_71)">
<path d="M13.8021 22.4896C16.8021 28.3854 21.625 33.2083 27.5312 36.2083L32.1146 31.6146C32.6875 31.0417 33.5104 30.875 34.2292 31.1042C36.5625 31.875 39.0729 32.2917 41.6667 32.2917C42.8229 32.2917 43.75 33.2187 43.75 34.375V41.6667C43.75 42.8229 42.8229 43.75 41.6667 43.75C22.1042 43.75 6.25 27.8958 6.25 8.33333C6.25 7.17708 7.1875 6.25 8.33333 6.25H15.625C16.7812 6.25 17.7083 7.17708 17.7083 8.33333C17.7083 10.9271 18.125 13.4375 18.8958 15.7708C19.125 16.4896 18.9583 17.3125 18.3854 17.8854L13.8021 22.4896Z" fill="black"/>
</g>
<defs>
<clipPath id="clip0_2005_71">
<rect width="50" height="50" fill="white"/>
</clipPath>
</defs>
</svg>
